<svg width="72" height="56" viewBox="0 0 72 56" fill="none" xmlns="http://www.w3.org/2000/svg">
<path d="M11.0148 0.496094C11.0128 0.496094 11.0107 0.496094 11.0087 0.496094C10.3277 0.496094 9.68726 0.761549 9.20362 1.24397C8.71465 1.73173 8.44531 2.38119 8.44531 3.07259V41.7067C8.44531 43.1234 9.60241 44.2788 11.025 44.2824C17.0221 44.2967 27.0696 45.5467 34.001 52.8003V12.3686C34.001 11.8884 33.8784 11.4372 33.6469 11.0639C27.9579 1.90216 17.0255 0.510154 11.0148 0.496094Z" fill="#CCCCCC"/>
<path d="M63.5555 41.7069V3.07259C63.5555 2.38119 63.2861 1.73173 62.7972 1.24397C62.3135 0.761549 61.6726 0.496094 60.9923 0.496094C60.9901 0.496094 60.988 0.496094 60.986 0.496094C54.9756 0.510397 44.0432 1.9024 38.3539 11.0641C38.1224 11.4375 38 11.8886 38 12.3689V52.8003C44.9314 45.5467 54.979 44.2967 60.9761 44.2824C62.3984 44.2788 63.5555 43.1234 63.5555 41.7069Z" fill="#CCCCCC"/>
<path d="M69.4247 9.40625H67.5566V41.7072C67.5566 45.3244 64.6094 48.274 60.9866 48.283C55.8998 48.2951 47.5124 49.2898 41.5723 54.9119C51.8458 52.3965 62.6759 54.0316 68.848 55.4382C69.6187 55.6137 70.415 55.4323 71.0325 54.9402C71.6478 54.4493 72.0007 53.7155 72.0007 52.9279V11.9823C72.001 10.5619 70.8451 9.40625 69.4247 9.40625Z" fill="#C43D3D"/>
<path d="M4.44414 41.7072V9.40625H2.57601C1.15588 9.40625 0 10.5619 0 11.9823V52.9271C0 53.715 0.352971 54.4486 0.968246 54.9395C1.58522 55.4314 2.38086 55.6134 3.15274 55.4374C9.32488 54.0306 20.1552 52.3957 30.4282 54.9111C24.4883 49.2893 16.1009 48.2949 11.0141 48.2827C7.39154 48.274 4.44414 45.3244 4.44414 41.7072Z" fill="#C43D3D"/>
</svg>
