<svg width="70" height="60" viewBox="0 0 70 60" fill="none" xmlns="http://www.w3.org/2000/svg">
<path d="M9.5 33L0.5 60H60.5L69.5 33H9.5Z" fill="#CCCCCC"/>
<path d="M12.5 30V10.5H0.5V50.505L6.65 32.055C7.505 29.565 9.86 30 12.5 30Z" fill="#CCCCCC"/>
<path d="M60.5 12H51.5C50.7044 12 49.9413 11.6839 49.3787 11.1213C48.8161 10.5587 48.5 9.79565 48.5 9V0H24.5V30H60.5V12ZM39.5 22.5H30.5C30.1022 22.5 29.7206 22.342 29.4393 22.0607C29.158 21.7794 29 21.3978 29 21C29 20.6022 29.158 20.2206 29.4393 19.9393C29.7206 19.658 30.1022 19.5 30.5 19.5H39.5C39.8978 19.5 40.2794 19.658 40.5607 19.9393C40.842 20.2206 41 20.6022 41 21C41 21.3978 40.842 21.7794 40.5607 22.0607C40.2794 22.342 39.8978 22.5 39.5 22.5ZM45.5 16.5H30.5C30.1022 16.5 29.7206 16.342 29.4393 16.0607C29.158 15.7794 29 15.3978 29 15C29 14.6022 29.158 14.2206 29.4393 13.9393C29.7206 13.658 30.1022 13.5 30.5 13.5H45.5C45.8978 13.5 46.2794 13.658 46.5607 13.9393C46.842 14.2206 47 14.6022 47 15C47 15.3978 46.842 15.7794 46.5607 16.0607C46.2794 16.342 45.8978 16.5 45.5 16.5Z" fill="#C43D3D"/>
<path d="M15.5 4.5H21.5V30H15.5V4.5Z" fill="#CCCCCC"/>
<path d="M51.5 0V9H60.5L51.5 0Z" fill="#C43D3D"/>
</svg>
