<svg width="64" height="72" viewBox="0 0 64 72" fill="none" xmlns="http://www.w3.org/2000/svg">
<path d="M41.4137 39.2865V28.6775H51.6975L29.1723 0L4.4043 28.6775H14.4787L30.3101 51.0013C32.0959 45.6504 36.194 41.3478 41.4137 39.2865Z" fill="#CCCCCC"/>
<path d="M29.3506 57.7676H25.4512V72.0009H36.6231C32.3702 68.6524 29.5737 63.5343 29.3506 57.7676Z" fill="#CCCCCC"/>
<path d="M0.626953 53.6893H6.46922V72.0008H14.4785H21.3735V53.6893H27.2485L14.4889 35.5684L0.626953 53.6893Z" fill="#CCCCCC"/>
<path d="M48.3934 42.041C40.1338 42.041 33.4141 48.7608 33.4141 57.0204C33.4141 65.28 40.1338 71.9998 48.3934 71.9998C56.653 71.9998 63.3728 65.28 63.3728 57.0204C63.3728 48.7608 56.653 42.041 48.3934 42.041ZM46.6632 63.8768L41.0773 58.2909L44.0466 55.3218L46.6632 57.9384L52.7404 51.8613L55.7096 54.8306L46.6632 63.8768Z" fill="#C43D3D"/>
</svg>
